<svg width="350" height="107" viewBox="0 0 350 107" fill="none" xmlns="http://www.w3.org/2000/svg">
<g clip-path="url(#clip0_150_25)">
<mask id="mask0_150_25" style="mask-type:luminance" maskUnits="userSpaceOnUse" x="44" y="6" width="67" height="48">
<path d="M44.8004 6.34302H110.188V53.0318H44.8004V6.34302Z" fill="white"/>
</mask>
<g mask="url(#mask0_150_25)">
<path d="M86.9532 38.1343C84.7368 38.1343 83.9854 37.82 77.0472 33.7473C75.1076 32.6215 72.7344 31.2428 69.7922 29.5509C72.7344 27.8913 75.0787 26.5125 77.0149 25.3868C84.0476 21.3141 84.799 20.9708 86.9532 20.9708C91.675 20.9708 95.4875 24.8239 95.5176 29.5832C95.4875 34.3146 91.6416 38.1343 86.9532 38.1343ZM110.148 29.5832C110.148 29.5832 110.148 29.5208 110.148 29.4885C110.115 16.7075 99.7058 6.34302 86.9532 6.34302C80.5152 6.34302 77.2039 8.25118 67.448 13.9545C62.8251 16.6451 56.4771 20.3411 47.3192 25.321C45.7886 26.1692 44.8182 27.7664 44.8182 29.5509C44.8182 31.3052 45.7886 32.9325 47.3192 33.7807C56.6049 38.822 63.0107 42.5469 67.6703 45.2743C77.6085 51.069 80.6096 52.791 86.9865 52.791C99.7392 52.791 110.148 42.3608 110.148 29.5832Z" fill="#70D446"/>
</g>
<mask id="mask1_150_25" style="mask-type:luminance" maskUnits="userSpaceOnUse" x="27" y="22" width="67" height="47">
<path d="M27.6016 22.1479H93.0487V68.7654H27.6016V22.1479Z" fill="white"/>
</mask>
<g mask="url(#mask1_150_25)">
<path d="M50.8194 36.8483C53.0391 36.8483 53.7905 37.1626 60.7609 41.2353C62.6972 42.361 65.0748 43.7386 68.0126 45.3994C65.0748 47.059 62.7306 48.4076 60.7943 49.5668C53.7616 53.6395 53.0102 53.9828 50.8516 53.9828C46.1309 53.9828 42.3206 50.1297 42.3206 45.3693C42.2883 40.668 46.1309 36.8483 50.8194 36.8483ZM70.3246 61.028C74.9508 58.3363 81.2987 54.6404 90.4567 49.6281C91.9884 48.7843 92.9543 47.186 92.9543 45.3994C92.9543 43.6439 91.9884 42.0177 90.4567 41.1729C81.1709 36.1271 74.794 32.4022 70.1389 29.6748C60.1963 23.8801 57.1996 22.1592 50.8194 22.1592C38.0367 22.1592 27.6283 32.5883 27.6283 45.3693V45.4317C27.6605 58.2093 38.0656 68.5771 50.8194 68.5771C57.2618 68.6384 60.5431 66.7303 70.3246 61.028Z" fill="#BDBFC1"/>
</g>
<mask id="mask2_150_25" style="mask-type:luminance" maskUnits="userSpaceOnUse" x="44" y="38" width="67" height="47">
<path d="M44.8004 38.0574H110.188V84.7439H44.8004V38.0574Z" fill="white"/>
</mask>
<g mask="url(#mask2_150_25)">
<path d="M86.9532 69.8597C84.7368 69.8597 83.9854 69.5487 77.0472 65.476C75.1076 64.3503 72.7344 62.9716 69.7922 61.2796C72.7344 59.62 75.0787 58.2413 77.0149 57.1122C84.0476 53.0429 84.799 52.6996 86.9532 52.6996C91.675 52.6996 95.4875 56.5493 95.5176 61.312C95.4875 66.0723 91.6416 69.8597 86.9532 69.8597ZM110.148 61.312C110.148 61.312 110.148 61.2462 110.148 61.2172C110.115 48.4363 99.7058 38.0718 86.9532 38.0718C80.5152 38.0718 77.2039 39.9811 67.448 45.6799C62.8251 48.3739 56.4771 52.0709 47.3192 57.0498C45.7886 57.898 44.8182 59.4952 44.8182 61.2796C44.8182 63.034 45.7886 64.6613 47.3192 65.5061C56.6049 70.5507 63.0107 74.2757 67.6703 77.0031C77.6085 82.7978 80.6096 84.5198 86.9865 84.5198C99.7392 84.5521 110.148 74.1219 110.148 61.312Z" fill="#3EBEC4"/>
</g>
<mask id="mask3_150_25" style="mask-type:luminance" maskUnits="userSpaceOnUse" x="27" y="53" width="66" height="48">
<path d="M27.6283 53.9492H92.9543V100.401H27.6283V53.9492Z" fill="white"/>
</mask>
<g mask="url(#mask3_150_25)">
<path d="M50.8194 68.6383C53.0391 68.6383 53.7905 68.9537 60.7609 73.0253C62.6972 74.1522 65.0748 75.5298 68.0126 77.1894C65.1037 78.8501 62.7306 80.1954 60.7943 81.3245C53.7616 85.3972 53.0102 85.7405 50.8516 85.7405C46.1309 85.7405 42.3206 81.8874 42.3206 77.1281C42.2883 72.4591 46.1309 68.6383 50.8194 68.6383ZM70.3246 92.8181C74.9508 90.1275 81.2987 86.4315 90.4567 81.4192C91.9884 80.5755 92.9543 78.9738 92.9543 77.1894C92.9543 75.435 91.9884 73.8078 90.4567 72.964C81.1709 67.8893 74.7651 64.1934 70.1056 61.466C60.1674 55.6712 57.1662 53.9492 50.7905 53.9492C38.0367 53.9827 27.6283 64.4129 27.6283 77.1894V77.2518C27.6605 90.0327 38.0656 100.397 50.8194 100.397C57.2618 100.43 60.5431 98.5214 70.3246 92.8181Z" fill="#97CEB6"/>
</g>
<path d="M145.201 37.3565V42.9093H151.688C150.361 45.0449 148.042 46.4191 145.249 46.4191C140.943 46.4191 137.724 43.2426 137.724 38.9213C137.724 34.6034 140.943 31.4224 145.249 31.4224C148.279 31.4224 150.74 32.9873 151.968 35.4583L158.217 32.2784C155.804 27.5292 150.882 24.3047 145.249 24.3047C137.156 24.3047 130.669 30.8529 130.669 38.9213C130.669 46.9898 137.156 53.5402 145.249 53.5402C153.295 53.5402 159.829 46.9898 159.829 38.9213V37.3565H145.201Z" fill="#2AB6BD"/>
<path d="M187.091 53.1599H194.853L184.584 24.6846H176.489L166.216 53.1599H174.025L175.589 48.1778H185.527L187.091 53.1599ZM177.433 42.2916L180.558 32.2303L183.73 42.2916H177.433Z" fill="#2AB6BD"/>
<path d="M218.139 41.8636C221.405 40.7268 223.676 37.5457 223.676 33.6525C223.676 28.7171 220.031 24.6846 214.966 24.6846H202.33V53.1599H209.571V42.7196H211.229L217.854 53.1599H225.995L218.139 41.8636ZM213.785 36.8803H209.571V30.9953H213.785C215.488 30.9953 216.72 32.2303 216.72 33.9378C216.72 35.6454 215.488 36.8803 213.785 36.8803Z" fill="#2AB6BD"/>
<path d="M251.932 24.6846H230.822V30.9953H237.783V53.1599H244.976V30.9953H251.932V24.6846Z" fill="#2AB6BD"/>
<path d="M280.188 24.6846V42.101L267.362 24.6846H259.79V53.1599H267.031V35.6922L279.812 53.1599H287.433V24.6846H280.188Z" fill="#2AB6BD"/>
<path d="M298.555 53.1599H305.795V24.6846H298.555V53.1599Z" fill="#2AB6BD"/>
<path d="M144.682 80.523L145.616 80.3179C145.915 80.2599 146.129 80.1975 146.257 80.1284C146.392 80.0627 146.484 79.9635 146.534 79.8353C146.581 79.7116 146.607 79.5098 146.607 79.2356V69.2635H145.265C144.507 69.2635 143.85 69.5477 143.297 70.1117C142.742 70.6779 142.356 71.3834 142.144 72.2316H141.648C141.842 71.2664 141.941 70.4037 141.941 69.6435C141.941 69.2735 141.915 68.9492 141.867 68.6638H153.841C153.801 68.9558 153.782 69.278 153.782 69.629C153.782 70.4583 153.873 71.3254 154.059 72.2316H153.577C153.374 71.3834 152.987 70.6779 152.426 70.1117C151.861 69.5477 151.204 69.2635 150.457 69.2635H149.116V79.2356C149.116 79.5098 149.137 79.7116 149.188 79.8353C149.236 79.9635 149.324 80.0627 149.45 80.1284C149.586 80.1975 149.8 80.2599 150.093 80.3179L151.041 80.523V80.9175H144.682V80.523Z" fill="#BDBFC1"/>
<path d="M157.517 80.523L158.465 80.3179C158.756 80.2599 158.964 80.1975 159.092 80.1284C159.227 80.0627 159.319 79.9635 159.369 79.8353C159.416 79.7116 159.442 79.5098 159.442 79.2356V70.3457C159.442 70.0749 159.416 69.8731 159.369 69.7461C159.319 69.6212 159.227 69.5232 159.092 69.4529C158.964 69.3872 158.756 69.3214 158.465 69.2635L157.517 69.0729V68.6638H167.93C167.871 68.9558 167.842 69.2924 167.842 69.6725C167.842 70.0927 167.878 70.5352 167.958 71.0033C168.035 71.4715 168.083 71.7635 168.104 71.8805H167.711C167.379 71.1126 166.938 70.4839 166.383 69.9946C165.83 69.5076 165.166 69.2635 164.4 69.2635H161.951V74.1476H164.298C164.888 74.1476 165.319 74.0372 165.582 73.811C165.851 73.5769 166.022 73.2258 166.092 72.7577L166.238 71.924H166.631V76.9697H166.238L166.078 76.0925C165.997 75.6467 165.83 75.3101 165.566 75.0827C165.312 74.8598 164.9 74.7472 164.327 74.7472H161.951V78.7686C161.951 79.2 161.968 79.5143 162.008 79.7183C162.056 79.9167 162.168 80.066 162.344 80.1719C162.526 80.2711 162.818 80.3179 163.219 80.3179H164.561C165.192 80.3179 165.734 80.1864 166.194 79.9233C166.66 79.6525 167.073 79.2579 167.434 78.7385L168.192 77.6418H168.6C168.297 78.9213 168.149 80.0114 168.149 80.9175H157.517V80.523Z" fill="#BDBFC1"/>
<path d="M179.756 81.0937C178.374 81.0937 177.145 80.8229 176.066 80.2745C174.987 79.7295 174.141 78.9872 173.528 78.052C172.916 77.1091 172.61 76.0625 172.61 74.9223C172.61 73.7163 172.916 72.6196 173.528 71.632C174.141 70.649 174.987 69.8777 176.066 69.3215C177.145 68.7664 178.349 68.4878 179.683 68.4878C180.295 68.4878 180.794 68.5324 181.185 68.6193C181.583 68.7074 181.958 68.8244 182.308 68.9704C182.607 69.1164 182.84 69.219 183.008 69.278C183.183 69.3293 183.391 69.3505 183.636 69.3505C183.818 69.3505 184.047 69.3215 184.32 69.2635L184.394 69.3215C184.306 69.6247 184.262 69.9579 184.262 70.3157C184.262 70.8529 184.379 71.6432 184.613 72.6853H184.116C183.113 70.309 181.611 69.1164 179.61 69.1164C178.823 69.1164 178.1 69.3616 177.452 69.8476C176.81 70.3269 176.299 71.0034 175.92 71.8806C175.541 72.7578 175.351 73.7743 175.351 74.9223C175.351 76.0157 175.527 76.9809 175.877 77.818C176.234 78.6584 176.741 79.3093 177.393 79.7774C178.053 80.2455 178.815 80.4796 179.683 80.4796C180.74 80.4796 181.659 80.1497 182.44 79.4854C183.215 78.8233 183.825 77.9461 184.262 76.8527H184.83C184.48 78.0632 184.291 79.2435 184.262 80.3915H184.131C183.839 80.3915 183.562 80.4172 183.3 80.4651C183.044 80.5153 182.72 80.5922 182.323 80.6981C181.885 80.8374 181.477 80.9321 181.098 80.9912C180.726 81.0569 180.281 81.0937 179.756 81.0937Z" fill="#BDBFC1"/>
<path d="M202.414 69.2635C202.111 69.3214 201.892 69.3872 201.758 69.4529C201.63 69.5232 201.542 69.6212 201.494 69.7461C201.443 69.8731 201.422 70.0749 201.422 70.3457V79.2356C201.422 79.5098 201.443 79.7116 201.494 79.8353C201.542 79.9635 201.63 80.0627 201.758 80.1284C201.892 80.1975 202.111 80.2599 202.414 80.3179L203.347 80.523V80.9175H196.988V80.523L197.936 80.3179C198.229 80.2599 198.436 80.1975 198.563 80.1284C198.699 80.0627 198.79 79.9635 198.841 79.8353C198.888 79.7116 198.914 79.5098 198.914 79.2356V74.7026H192.992V79.2356C192.992 79.5098 193.015 79.7116 193.066 79.8353C193.114 79.9635 193.2 80.0627 193.328 80.1284C193.464 80.1975 193.686 80.2599 193.999 80.3179L194.918 80.523V80.9175H188.56V80.523L189.508 80.3179C189.799 80.2599 190.007 80.1975 190.135 80.1284C190.269 80.0627 190.36 79.9635 190.411 79.8353C190.459 79.7116 190.485 79.5098 190.485 79.2356V70.3457C190.485 70.0749 190.459 69.8731 190.411 69.7461C190.36 69.6212 190.269 69.5232 190.135 69.4529C190.007 69.3872 189.799 69.3214 189.508 69.2635L188.56 69.0729V68.6638H194.918V69.0729L193.999 69.2635C193.686 69.3214 193.464 69.3872 193.328 69.4529C193.2 69.5232 193.114 69.6212 193.066 69.7461C193.015 69.8731 192.992 70.0749 192.992 70.3457V74.103H198.914V70.3457C198.914 70.0749 198.888 69.8731 198.841 69.7461C198.79 69.6212 198.699 69.5232 198.563 69.4529C198.436 69.3872 198.229 69.3214 197.936 69.2635L196.988 69.0729V68.6638H203.347V69.0729L202.414 69.2635Z" fill="#BDBFC1"/>
<path d="M209.86 70.9743V79.2356C209.86 79.5288 209.937 79.7595 210.093 79.9233C210.247 80.0805 210.495 80.1864 210.837 80.2455L212.164 80.523V80.9175H207.148V80.523L208.227 80.2744C208.577 80.2087 208.825 80.0994 208.971 79.9523C209.124 79.7996 209.204 79.5578 209.204 79.2356V70.3457C209.204 70.0749 209.179 69.8731 209.131 69.7461C209.08 69.6212 208.989 69.5232 208.854 69.4529C208.726 69.3872 208.512 69.3214 208.213 69.2635L207.279 69.0729V68.6638H211.1L218.741 77.1157V70.3457C218.741 70.0526 218.658 69.8297 218.493 69.6725C218.337 69.5076 218.089 69.395 217.75 69.3359L216.437 69.0729V68.6638H221.44V69.0729L220.375 69.3069C220.033 69.376 219.78 69.4897 219.617 69.6435C219.46 69.7895 219.384 70.0236 219.384 70.3457V81.2252H219.077L209.86 70.9743Z" fill="#BDBFC1"/>
<path d="M231.639 81.1227C230.421 81.1227 229.313 80.8452 228.314 80.289C227.322 79.7339 226.55 78.9838 225.995 78.0375C225.441 77.0935 225.164 76.0558 225.164 74.9223C225.164 73.7163 225.441 72.6196 225.995 71.632C226.55 70.649 227.316 69.8777 228.299 69.3215C229.291 68.7664 230.403 68.4878 231.639 68.4878C232.871 68.4878 233.987 68.7664 234.978 69.3215C235.97 69.8699 236.747 70.62 237.312 71.5741C237.874 72.5204 238.157 73.5591 238.157 74.6882C238.157 75.9098 237.881 77.0066 237.327 77.9785C236.772 78.9548 235.992 79.7261 234.993 80.289C234.001 80.8452 232.882 81.1227 231.639 81.1227ZM231.639 80.4796C232.386 80.4796 233.047 80.2455 233.622 79.7774C234.206 79.3026 234.647 78.6294 234.95 77.7589C235.26 76.8929 235.416 75.873 235.416 74.7027C235.416 73.6138 235.256 72.6407 234.935 71.7925C234.622 70.9443 234.18 70.2867 233.608 69.8186C233.043 69.3505 232.386 69.1164 231.639 69.1164C230.899 69.1164 230.247 69.3583 229.685 69.8331C229.131 70.3012 228.694 70.9811 228.373 71.8661C228.059 72.7433 227.906 73.7631 227.906 74.9223C227.906 76.0045 228.059 76.9698 228.373 77.818C228.694 78.6584 229.131 79.3093 229.685 79.7774C230.247 80.2455 230.899 80.4796 231.639 80.4796Z" fill="#BDBFC1"/>
<path d="M242.148 80.523L243.096 80.3179C243.387 80.2599 243.595 80.1975 243.723 80.1284C243.857 80.0627 243.949 79.9635 244 79.8353C244.047 79.7116 244.073 79.5098 244.073 79.2356V70.3457C244.073 70.0749 244.047 69.8731 244 69.7461C243.949 69.6212 243.857 69.5232 243.723 69.4529C243.595 69.3872 243.387 69.3214 243.096 69.2635L242.148 69.0729V68.6638H248.506V69.0729L247.588 69.2635C247.274 69.3214 247.052 69.3872 246.916 69.4529C246.788 69.5232 246.702 69.6212 246.654 69.7461C246.603 69.8731 246.582 70.0749 246.582 70.3457V79.2356C246.582 79.5979 246.673 79.8721 246.859 80.0549C247.052 80.231 247.383 80.3179 247.85 80.3179H250.14C250.818 80.3179 251.382 80.1864 251.832 79.9233C252.287 79.6603 252.681 79.2657 253.012 78.7385L253.843 77.3498H254.252C253.891 78.8344 253.712 80.0225 253.712 80.9175H242.148V80.523Z" fill="#BDBFC1"/>
<path d="M264.261 81.1227C263.044 81.1227 261.935 80.8452 260.936 80.289C259.945 79.7339 259.171 78.9838 258.617 78.0375C258.063 77.0935 257.786 76.0558 257.786 74.9223C257.786 73.7163 258.063 72.6196 258.617 71.632C259.171 70.649 259.937 69.8777 260.922 69.3215C261.913 68.7664 263.025 68.4878 264.261 68.4878C265.493 68.4878 266.609 68.7664 267.601 69.3215C268.592 69.8699 269.369 70.62 269.934 71.5741C270.495 72.5204 270.78 73.5591 270.78 74.6882C270.78 75.9098 270.503 77.0066 269.948 77.9785C269.395 78.9548 268.615 79.7261 267.615 80.289C266.624 80.8452 265.505 81.1227 264.261 81.1227ZM264.261 80.4796C265.009 80.4796 265.668 80.2455 266.245 79.7774C266.827 79.3026 267.269 78.6294 267.572 77.7589C267.881 76.8929 268.038 75.873 268.038 74.7027C268.038 73.6138 267.878 72.6407 267.556 71.7925C267.243 70.9443 266.802 70.2867 266.229 69.8186C265.665 69.3505 265.009 69.1164 264.261 69.1164C263.52 69.1164 262.868 69.3583 262.307 69.8331C261.753 70.3012 261.315 70.9811 260.994 71.8661C260.68 72.7433 260.528 73.7631 260.528 74.9223C260.528 76.0045 260.68 76.9698 260.994 77.818C261.315 78.6584 261.753 79.3093 262.307 79.7774C262.868 80.2455 263.52 80.4796 264.261 80.4796Z" fill="#BDBFC1"/>
<path d="M281.813 81.1227C280.624 81.1227 279.509 80.8708 278.458 80.3626C277.408 79.8577 276.562 79.1298 275.921 78.1836C275.279 77.2295 274.958 76.1071 274.958 74.8197C274.958 73.6204 275.257 72.5393 275.863 71.5741C276.464 70.6088 277.285 69.8554 278.327 69.307C279.366 68.762 280.515 68.4878 281.769 68.4878C282.44 68.4878 282.987 68.5424 283.417 68.6494C283.854 68.7475 284.281 68.879 284.7 69.044C284.981 69.1532 285.203 69.2301 285.371 69.278C285.535 69.3293 285.713 69.3505 285.91 69.3505C286.086 69.3505 286.294 69.3215 286.538 69.2635L286.61 69.3215C286.599 69.3728 286.574 69.4787 286.538 69.6436C286.497 69.8119 286.479 69.9613 286.479 70.0961C286.479 70.7615 286.53 71.3066 286.639 71.7346C286.756 72.1659 286.815 72.3855 286.815 72.3922H286.188C285.809 71.34 285.246 70.5319 284.511 69.9646C283.77 69.3906 282.884 69.1019 281.856 69.1019C281.01 69.1019 280.27 69.3583 279.64 69.8632C279.005 70.3603 278.524 71.0435 278.196 71.9096C277.864 72.7801 277.7 73.7486 277.7 74.8197C277.7 76.5094 278.05 77.8726 278.75 78.9147C279.458 79.9602 280.572 80.4796 282.09 80.4796C282.498 80.4796 282.907 80.4317 283.315 80.3325C283.723 80.2266 284.106 80.0182 284.466 79.7038V76.9698C284.466 76.5897 284.401 76.3411 284.277 76.2241C284.161 76.0993 283.89 75.9867 283.475 75.8875L282.542 75.6969V75.2879H288.593V75.6969L287.952 75.8139C287.533 75.9131 287.267 76.0302 287.151 76.165C287.034 76.3044 286.975 76.5563 286.975 76.9263V80.3771L286.917 80.406C286.789 80.3693 286.669 80.3436 286.553 80.3325C286.436 80.3146 286.282 80.3035 286.1 80.3035C285.903 80.3035 285.677 80.3436 285.414 80.4205C285.152 80.4907 284.875 80.5632 284.583 80.6401C284.106 80.7861 283.654 80.9031 283.227 80.9912C282.808 81.0792 282.338 81.1227 281.813 81.1227Z" fill="#BDBFC1"/>
<path d="M304.688 68.6638V69.0729L303.564 69.3069C303.302 69.3582 303.091 69.4318 302.938 69.5265C302.792 69.6246 302.675 69.7751 302.587 69.9801L299.263 74.8486V79.2356C299.263 79.5098 299.285 79.7116 299.336 79.8353C299.383 79.9635 299.471 80.0627 299.599 80.1284C299.733 80.1975 299.949 80.2599 300.24 80.3179L301.188 80.523V80.9175H294.83V80.523L295.777 80.3179C296.069 80.2599 296.277 80.1975 296.405 80.1284C296.54 80.0627 296.631 79.9635 296.682 79.8353C296.729 79.7116 296.754 79.5098 296.754 79.2356V75.0983L293.313 69.7461C293.138 69.4819 292.905 69.3292 292.613 69.278L291.68 69.0729V68.6638H298.169V69.0729L297.25 69.2635C296.744 69.3727 296.492 69.5633 296.492 69.833C296.492 69.95 296.543 70.0961 296.653 70.2722L298.942 73.9135L301.581 70.0671C301.658 69.9723 301.698 69.8776 301.698 69.7895C301.698 69.6246 301.524 69.4975 301.174 69.4095L299.642 69.0729V68.6638H304.688Z" fill="#BDBFC1"/>
</g>
<defs>
<clipPath id="clip0_150_25">
<rect width="350" height="107" fill="white"/>
</clipPath>
</defs>
</svg>
